<svg width="216" height="325" viewBox="0 0 216 325" fill="none" xmlns="http://www.w3.org/2000/svg">
<path d="M79 232.4C70.5 223.9 70.5 210.1 79 201.6L107.9 172.7L165.2 115.4L107.9 0L72.7 70.9V137.1L50.7 115.1L0 217L70 287L101.8 255.2L79 232.4Z" fill="#00BCFF"/>
<path d="M215.8 217L169.3 123.6L114 178.9L136.7 201.6C145.2 210.1 145.2 223.9 136.7 232.4L76 293.1L107.8 324.9L215.8 217Z" fill="#00BCFF"/>
<path d="M72.7 70.9L165.2 115.3L107.9 0L72.7 70.9Z" fill="#00BCFF"/>
<path d="M72.7 70.9L117.9 162.6L165.2 115.3L72.7 70.9Z" fill="#00A9FF"/>
<path d="M72.7 137.1L117.9 162.6L72.7 70.9V137.1Z" fill="#00A4E5"/>
<path d="M72.7 137.1L0 217L50.7 115.1L72.7 137.1Z" fill="#00A9FF"/>
<path d="M0 217L79 201.5L117.9 162.6L72.7 137.1L0 217Z" fill="#00BCFF"/>
<path d="M79 201.5L0 216.9L101.8 255.1L79 232.3C70.5 223.9 70.5 210.1 79 201.5Z" fill="#00A9FF"/>
<path d="M72.7 137.1L79 201.5L117.9 162.6L72.7 137.1Z" fill="#00A9FF"/>
<path d="M70 287L50.9 236.1L101.8 255.2L70 287Z" fill="#00A4E5"/>
<path d="M126.4 166.5L169.3 123.5L215.8 217L126.4 166.5Z" fill="#00BCFF"/>
<path d="M141.8 209.2L126.4 166.5L114.1 178.8L136.8 201.5C139.1 203.8 140.7 206.4 141.8 209.2Z" fill="#00A4E5"/>
<path d="M171.1 212.3L169.3 263.5L215.8 217L171.1 212.3Z" fill="#00A9FF"/>
<path d="M169.3 123.5V190.7L215.8 217L169.3 123.5Z" fill="#00A9FF"/>
<path d="M124.3 245.2L107.9 324.9L169.3 263.5L124.3 245.2Z" fill="#00BCFF"/>
<path d="M141.8 209.2L169.3 263.5L215.8 217L141.8 209.2Z" fill="#00A9FF"/>
<path d="M178.2 212.3L169.3 263.5L215.8 217L178.2 212.3Z" fill="#00BCFF"/>
<path d="M126.4 166.5L141.8 209.2L215.8 217L126.4 166.5Z" fill="#00A4E5"/>
<path d="M169.3 190.7L141.8 209.2L126.4 166.5L169.3 190.7Z" fill="#00A9FF"/>
<path d="M124.3 245.2L138.6 294.2L169.3 263.5L124.3 245.2Z" fill="#00A9FF"/>
<path d="M124.3 245.2L107.9 324.9L76.1 293.1L124.3 245.2Z" fill="#00A4E5"/>
</svg>
